<svg xmlns="http://www.w3.org/2000/svg" viewBox="0 0 720 720"><path fill="#00AEEF" d="M0 0h720v720H0z"/><g fill="#FFF"><path d="M365.8 592.7c-1.4 0-2.8 0-4.3-.1-1.9 0-3.4-1.6-3.4-3.6.1-1.9 1.7-3.3 3.6-3.4 37.8.9 59.6-11.6 64.9-15.2v-13c0-1.9 1.6-3.5 3.5-3.5h72.7V425.6l-46.9-38.8v86.4c0 1-.4 1.9-1.2 2.6-.7.7-1.7 1-2.7.8-.3 0-25.3-3.6-25.3-37.7v-83.6c0-160-58.9-226.8-66.5-230.3h-4.5c-7.6 3.4-67.3 70.1-67.3 230v20.7c0 .9-.4 1.8-1.1 2.5l-72.9 70.1v76.5l70.1 8.9c1.9.2 3.2 2 3 3.9-.2 1.9-1.9 3.3-3.9 3l-73.1-9.2c-1.7-.2-3-1.7-3-3.4v-81c0-.9.4-1.8 1.1-2.5l72.9-70.1V355c0-165.6 63.8-236.9 73.9-236.9h5.2c10 0 73.1 71.4 73.1 237.2v83.6c0 20.1 9.7 27.2 15.4 29.6v-89.1c0-1.3.8-2.6 2-3.1 1.2-.6 2.6-.4 3.7.5l53.8 44.6c.8.7 1.3 1.6 1.3 2.7v133.6c0 1.9-1.6 3.5-3.5 3.5h-72.7v11.3c0 1.1-.5 2.1-1.3 2.7-1.1.6-22.8 17.5-66.6 17.5zM284 602.1c-.9 0-1.8-.4-2.4-1-.7-.7-1-1.5-1-2.5v-61.5c0-1.9 1.6-3.5 3.5-3.5s3.5 1.6 3.5 3.5v58l10.8-.3L334 568V422.6l-7.4-2.1-27.4 67.8c-.7 1.8-2.7 2.6-4.5 1.9-1.8-.7-2.6-2.7-1.9-4.5l28.6-70.6c.7-1.6 2.4-2.5 4.2-2l12.9 3.6c1.5.4 2.5 1.8 2.5 3.3v149.7c0 1.1-.5 2.1-1.4 2.8L301.7 601c-.6.4-1.3.7-2 .7l-15.7.4c.1 0 0 0 0 0z"/></g></svg>