<svg id="Layer_1" xmlns="http://www.w3.org/2000/svg" viewBox="50 0 150 50" height="50" width="150"><style>.st0{fill:#FFFFFF;}</style><title>marketing-icons</title><g id="Icon-Sprites"><g id="marketing-icons"><path class="st0" d="M167.6 21.5c.1.1.3.1.4.1h.1l2.8-.3c.2 0 .3-.1.4-.2.1-.1.2-.3.1-.5v-.3c0-.3-.4-.6-.7-.6l-1.9.3-.1-1.1 1.9-.2c.3 0 .6-.3.6-.7v-.3c0-.2-.1-.3-.2-.4-.1-.1-.3-.2-.5-.1l-1.9.2-.1-1.1 1.8-.3c.2 0 .3-.1.4-.2.1-.1.2-.3.1-.5V15c0-.3-.4-.6-.7-.6l-2.8.3c-.3 0-.6.3-.6.7l.6 5.7c.1.2.2.3.3.4zm5.5-.8c.1.2.3.4.6.4h.4c.3 0 .5-.2.5-.5l.6-2.2 1 2c.1.2.4.4.6.3h.3c.3 0 .5-.2.6-.5l.9-5.9c0-.2 0-.4-.2-.5-.1-.1-.3-.2-.5-.2h-.3c-.3 0-.5.2-.6.5l-.5 3.4-.9-1.8c-.1-.2-.4-.4-.6-.3h-.2c-.3 0-.5.2-.5.5l-.5 2-1.3-3.2c-.1-.3-.4-.4-.7-.4h-.3c-.2 0-.4.1-.5.3-.1.2-.1.4 0 .6l2.1 5.5zm-2.9 6.4c-.3 0-.6.3-.6.7 0 .3.3.6.6.6h.1l13.8-1.5c.3 0 .6-.3.6-.7 0-.3-.3-.6-.7-.6l-13.8 1.5zm-1.1-3.3c0 .3.3.6.6.6h.1l13.8-1.5c.3 0 .6-.3.6-.7 0-.3-.3-.6-.7-.6l-13.8 1.5c-.4 0-.6.3-.6.7zm12.1-5.1c-.2 0-.4 0-.6-.2-.1-.1-.2-.2-.3-.4 0-.2-.2-.3-.3-.4-.2-.1-.4-.1-.5 0l-.3.1c-.3.1-.4.4-.3.7.1.5.4.9.8 1.2.4.3.9.5 1.4.5h.3c.6-.1 1.2-.4 1.6-.9.4-.5.6-1.1.5-1.7-.1-.6-.4-1.2-.9-1.6-.4-.3-.9-.6-1.4-.7-.3-.1-.4-.2-.5-.3-.1-.1-.1-.1-.1-.2s0-.1.1-.2.1-.1.2-.1c0 0 .1 0 .1.1l.1.1c.1.2.2.3.4.3.2.1.3 0 .5 0h.1c.3-.2.4-.5.3-.8-.1-.2-.3-.5-.5-.6-.4-.3-.9-.4-1.3-.4-.5.1-.9.3-1.2.7-.3.4-.4.9-.4 1.4.1.5.3.9.7 1.2.3.2.7.4 1.2.5.3.1.5.2.7.4.2.1.3.3.3.5s0 .4-.2.6c-.1.1-.3.2-.5.2zm3.2 10.9L162.7 32c-.3 0-.6.3-.6.7 0 .3.3.6.6.6h.1l21.7-2.3c.3 0 .6-.3.6-.7 0-.4-.3-.7-.7-.7zm-22.7-7.2c.1 0 .1 0 0 0h.4c.3 0 .6-.3.6-.7l-.4-3.2 3 3.3c.1.2.3.2.5.2l.5-.1c.2 0 .3-.1.4-.2.1-.1.2-.3.1-.5l-.6-5.7c0-.2-.1-.3-.2-.4-.1-.1-.3-.2-.5-.1h-.3c-.3 0-.6.3-.6.7l.4 3.4-3-3.5c-.1-.2-.3-.2-.5-.2h-.4c-.3 0-.6.3-.6.7l.6 5.7c0 .2.1.3.2.4.2.1.3.2.4.2zM194 35.1l-2.4-22.7c-.1-.6-.4-1.2-.9-1.6-.5-.4-1.1-.6-1.8-.5h-.3c-.4 0-.6.3-.6.7l-.1-.7c-.1-.7-.7-1.3-1.4-1.3h-.2l-30 3.2c-.8.1-1.4.8-1.3 1.6l2.4 22.7c.1.7.7 1.3 1.5 1.3h.5c-.2.1-.3.3-.3.6v.4c.1 1.2 1.2 2.2 2.4 2.2h.3l30-3.2c.6-.1 1.2-.4 1.6-.9.5-.5.7-1.2.6-1.8zm-35.1 1.5v.6-.6c-.1 0-.2-.1-.3-.2l-2.3-22.7c0-.1.1-.2.2-.2l30-3.2c.1 0 .2.1.2.2l2.4 22.7c0 .1 0 .1-.1.2l-.1.1-30 3.1zm33.6-.5c-.2.2-.5.4-.8.4l-30 3.2c-.7.1-1.2-.4-1.3-1v-.4c0-.2-.2-.4-.4-.5l29-3.2c.4 0 .7-.2 1-.5.2-.3.4-.7.3-1.1L188 11c0 .3.4.6.7.6h.3c.3 0 .6.1.8.2.2.2.4.5.4.8l2.4 22.7c.2.2.1.5-.1.8zm-30-5.3l5.9-.6c.3 0 .6-.3.6-.7l-.6-5.9c0-.3-.3-.6-.7-.6l-5.9.6c-.3 0-.6.3-.6.7l.6 5.9c0 .2.1.3.2.4.2.2.3.2.5.2zm4.7-6.4l.5 4.6-4.7.5-.5-4.6 4.7-.5z" id="news-icon"/><path class="st0" d="M113.2 28.5h11c.3 0 .6-.3.6-.6s-.3-.6-.6-.6h-11c-.3 0-.6.3-.6.6s.2.6.6.6zm7.6-18.3h10c1.2 0 2.1.9 2.1 2.1 0 .3.3.6.6.6s.6-.3.6-.6c-.1-1.9-1.5-3.3-3.4-3.3h-10c-.3 0-.6.3-.6.6s.3.6.7.6zm-7.6 22.5h11c.3 0 .6-.3.6-.6s-.3-.6-.6-.6h-11c-.3 0-.6.3-.6.6 0 .4.2.6.6.6zm0 4.3h17.6c.3 0 .6-.3.6-.6s-.3-.6-.6-.6h-17.6c-.3 0-.6.3-.6.6s.2.6.6.6zm20.3-7.1c-.3 0-.6.3-.6.6v7.1c0 1.2-1 2.1-2.1 2.1h-17.4c-1.2 0-2.1-1-2.1-2.1V19.9c0-.3-.3-.6-.6-.6s-.6.3-.6.6v17.7c0 1.9 1.5 3.4 3.4 3.4h17.4c1.8 0 3.3-1.5 3.3-3.4v-7.1c-.1-.3-.4-.6-.7-.6zm-9.3-6.8h-11c-.3 0-.6.3-.6.6s.3.6.6.6h11c.3 0 .6-.3.6-.6s-.3-.6-.6-.6zM110.6 19h6.1c1.7 0 3.2-1.4 3.2-3.2V9.6c0-.2-.1-.5-.4-.6-.2 0-.5 0-.7.2l-8.6 8.8c-.2.2-.2.4-.2.6.1.3.4.4.6.4zm8.1-7.9v4.8c0 1.1-.9 2-1.9 2H112l6.7-6.8zm20.4 2.1c-1.5-1-2.5-1.4-3.4-1.4-.7 0-1.3.3-1.8 1 0 0-.1.1-.1.2-.1.2-.4.5-.6.8L126 24.3l-.2.2c-.1.1-.1.2-.1.3l-.4 7c0 .2.1.4.2.5.1.1.2.1.4.1h.2L133 30c.1 0 .2-.1.3-.2l7.1-10.3 1.2-1.5c1.3-1.9-.5-3.4-2.5-4.8zM126.6 31v-.5l.5.3-.5.2zm1.9-.7l-1.8-1.3.2-3.5c.5.2 1 .6 1.2 1.1.1.2.2.3.5.4 0 0 1.1.2 1.5 1.2.1.2.3.4.5.4 0 0 .6.1 1.3.6l-3.4 1.1zm4.3-1.8c-.7-.7-1.4-.9-1.8-1.1-.5-.9-1.4-1.4-1.9-1.5-.4-.8-1.2-1.3-1.7-1.5l6.4-9.4.2-.2c.9.1 2.1.6 3.2 1.4 1.1.8 2.1 1.7 2.5 2.5l-6.9 9.8zm7.8-11.2l-.2.3c-.6-.8-1.5-1.6-2.5-2.4-1-.7-2.1-1.2-3.1-1.5l.2-.2c.2-.4.4-.5.8-.5.6 0 1.5.4 2.7 1.2 2.6 1.9 2.5 2.5 2.1 3.1z" id="write-icon"/><path class="st0" d="M93 17.8v-.1l-3.2-8.2c-.1-.3-.4-.5-.7-.5H59.9c-.3 0-.6.2-.7.5L56 17.7v22.6c0 .4.3.7.7.7h35.5c.4 0 .7-.3.7-.7V18c.1-.1.1-.1.1-.2zm-16.3-7.3l1.8 7.5v8.5l-3.7-1.9c-.2-.1-.4-.1-.7 0l-3.7 1.9v-8.6l1.8-7.4h4.5zm14.8 29h-34V18.7h10.1c.4 0 .7-.3.7-.7 0-.4-.3-.7-.7-.7h-9.7l2.6-6.8h10.4L69 17.6v10c0 .3.1.5.3.6.2.1.5.1.7 0l4.4-2.2 4.4 2.2c.1.1.2.1.3.1.1 0 .3 0 .4-.1.2-.1.3-.4.3-.6v-9.7-.2L78 10.5h10.4l2.6 6.8h-9.7c-.4 0-.7.3-.7.7 0 .4.3.7.7.7h10.1v20.8h.1z" id="box-icon"/></g></g></svg>