<svg id="Layer_1" xmlns="http://www.w3.org/2000/svg" viewBox="5 7 60 37" height="60" width="37"><style>.st0{fill:#00ADEF;}</style><title>logo</title><g id="Page-1"><g id="logo"><path id="FUEL" class="st0" d="M17.7 12.9h-7.2v9.4h4.9v5.4h-4.9v15.5H5.1V7.5h12.5v5.4zm16.1-5.4v28.3c0 1.5-.3 2.8-.9 3.9-.4 1-1.1 1.9-2.1 2.6-1 .8-2.3 1.2-4 1.2-1.8 0-3.1-.4-4.1-1.2-1-.7-1.6-1.6-2-2.6-.5-1.1-.8-2.4-.9-3.9V7.5H25v28.3c0 1 .2 1.7.7 2.2.2.2.6.4 1 .4.9 0 1.4-.6 1.6-1.3.1-.3.2-.8.2-1.3V7.5h5.3zm3.8 0h12v5.4h-6.8v9.4h4.9V28h-4.9v9.8h6.8v5.4h-12V7.5zm14.9 0h5.3v30.8h7v4.8H52.5V7.5z"/></g></g></svg>