<svg xmlns="http://www.w3.org/2000/svg" viewBox="-140 74 37 43"><title>calendar-icon</title><path fill="#9B9B9B" d="M-105.6 76.7h-4.7v-2c0-.4-.3-.8-.8-.8s-.8.3-.8.8v2h-9.2v-2c0-.4-.3-.8-.8-.8-.4 0-.8.3-.8.8v2h-9.2v-2c0-.4-.3-.8-.7-.8s-.8.3-.8.8v2h-4.7c-1.1 0-1.9.9-1.9 1.9v36.1c0 1 .9 1.9 1.9 1.9h32.5c1 0 1.9-.8 1.9-1.9V78.6c0-1-.8-1.9-1.9-1.9zm-5.5 5.3c.2 0 .3-.1.4-.1-.1.1-.2.2-.4.1-.1 0-.2 0-.3-.1.1.1.2.1.3.1zm-10.7 0c.1 0 .2 0 .3-.1-.1.1-.2.2-.3.1-.1 0-.2 0-.3-.1.1.1.2.1.3.1zm-10.8 0c.1 0 .2 0 .3-.1-.1.1-.2.2-.3.1-.1 0-.2 0-.3-.1.1.1.2.1.3.1zm27.4 32.7c0 .2-.2.4-.4.4h-32.5c-.2 0-.4-.2-.4-.4v-36c0-.2.2-.4.4-.4h4.7v1.3c-.8.3-1.3 1.1-1.3 1.9 0 1.2.9 2.1 2.1 2.1 1.1 0 2.1-.9 2.1-2.1 0-.9-.6-1.6-1.3-1.9v-1.3h9.2v1.3c-.8.3-1.3 1.1-1.3 1.9 0 1.2.9 2.1 2.1 2.1 1.1 0 2.1-.9 2.1-2.1 0-.9-.6-1.6-1.3-1.9v-1.3h9.2v1.3c-.8.3-1.3 1.1-1.3 1.9 0 1.2.9 2.1 2.1 2.1 1.2 0 2.1-.9 2.1-2.1 0-.9-.6-1.6-1.3-1.9v-1.3h4.7c.2 0 .4.2.4.4l-.1 36zm-4.7-28.4h-23.9c-1.1 0-1.9.9-1.9 1.9V110c0 1 .9 1.9 1.9 1.9h23.9c1 0 1.9-.8 1.9-1.9V88.2c.1-1-.8-1.9-1.9-1.9zm.5 23.7c0 .2-.2.4-.4.4h-23.9c-.2 0-.4-.2-.4-.4V88.2c0-.2.2-.4.4-.4h23.9c.2 0 .4.2.4.4V110zm-8.1-10.5c-.2-.3-.5-.5-.8-.7.2-.1.4-.3.5-.5.3-.3.5-.7.7-1.2.1-.4.2-.9.2-1.4 0-.7-.2-1.4-.5-1.9s-.7-1-1.2-1.3c-.5-.3-1-.6-1.6-.7-1.3-.3-2.7-.3-3.8.2-.6.3-1.2.6-1.6 1.1-.4.5-.8 1-1 1.7-.2.6-.3 1.3-.3 2.1 0 .4.3.8.8.8h.7c.4 0 .7-.3.7-.7 0-.5.1-.9.2-1.3s.3-.7.5-.9c.2-.2.5-.4.8-.6.6-.3 1.4-.3 2.2-.1.3.1.6.2.9.4l.6.6c.1.2.2.5.2.8 0 .4-.1.8-.3 1-.2.3-.4.5-.7.6-.3.2-.7.3-1.1.3-.4.1-.9.1-1.3.1-.2 0-.4.1-.6.2-.1.1-.2.3-.2.5v.6c0 .2.1.4.2.5.2.1.4.2.6.2.5 0 1 0 1.5.1.4.1.8.2 1.2.4.3.2.5.4.7.7.2.3.3.7.3 1.2 0 .4-.1.8-.2 1.1-.2.3-.4.6-.6.8-.3.2-.6.4-1 .5-.9.3-1.9.2-2.6-.1-.4-.1-.7-.3-1-.6-.3-.3-.4-.6-.6-1-.1-.4-.2-.9-.2-1.4 0-.2-.1-.4-.2-.5-.1-.1-.3-.2-.5-.2h-.7c-.4 0-.7.3-.8.7 0 .8 0 1.6.3 2.3.2.7.6 1.3 1.1 1.7.5.5 1.1.8 1.8 1.1.7.2 1.4.3 2.2.3.7 0 1.3-.1 2-.3.6-.2 1.2-.5 1.7-.9s.9-.9 1.2-1.5c.3-.6.4-1.3.4-2 0-.5-.1-1-.2-1.5 0-.5-.3-.9-.6-1.3z"/></svg>