<?xml version="1.0" encoding="UTF-8" standalone="no"?>
<svg width="8px" height="11px" viewBox="0 0 8 11" version="1.1" xmlns="http://www.w3.org/2000/svg" xmlns:xlink="http://www.w3.org/1999/xlink" xmlns:sketch="http://www.bohemiancoding.com/sketch/ns">
    <!-- Generator: Sketch 3.3.2 (12043) - http://www.bohemiancoding.com/sketch -->
    <title>dropdown-arrow-icon</title>
    <desc>Created with Sketch.</desc>
    <defs></defs>
    <g id="Page-1" stroke="none" stroke-width="1" fill="none" fill-rule="evenodd" sketch:type="MSPage">
        <path d="M8,7 C8,7.13541734 7.95052133,7.25260367 7.8515625,7.3515625 L4.3515625,10.8515625 C4.25260367,10.9505213 4.13541734,11 4,11 C3.86458266,11 3.74739633,10.9505213 3.6484375,10.8515625 L0.1484375,7.3515625 C0.0494786719,7.25260367 0,7.13541734 0,7 C0,6.86458266 0.0494786719,6.74739633 0.1484375,6.6484375 C0.247396328,6.54947867 0.364582656,6.5 0.5,6.5 L7.5,6.5 C7.63541734,6.5 7.75260367,6.54947867 7.8515625,6.6484375 C7.95052133,6.74739633 8,6.86458266 8,7 L8,7 Z M8,4 C8,4.13541734 7.95052133,4.25260367 7.8515625,4.3515625 C7.75260367,4.45052133 7.63541734,4.5 7.5,4.5 L0.5,4.5 C0.364582656,4.5 0.247396328,4.45052133 0.1484375,4.3515625 C0.0494786719,4.25260367 0,4.13541734 0,4 C0,3.86458266 0.0494786719,3.74739633 0.1484375,3.6484375 L3.6484375,0.1484375 C3.74739633,0.0494786719 3.86458266,0 4,0 C4.13541734,0 4.25260367,0.0494786719 4.3515625,0.1484375 L7.8515625,3.6484375 C7.95052133,3.74739633 8,3.86458266 8,4 L8,4 Z" id="dropdown-arrow-icon" fill="#CCCCCC" sketch:type="MSShapeGroup"></path>
    </g>
</svg>