<svg xmlns="http://www.w3.org/2000/svg" viewBox="-58 71 200 50" width="200" height="50"><title>navigation-icons</title><path fill="#FFF" d="M115.9 84.7v4.2c0 .3.3.6.6.6s.6-.3.6-.6v-4.2c1-.3 1.8-1.2 1.8-2.3 0-1.3-1.1-2.4-2.4-2.4-1.3 0-2.4 1.1-2.4 2.4 0 1.1.8 2 1.8 2.3zm.6-3.6c.7 0 1.3.6 1.3 1.3 0 .7-.6 1.3-1.3 1.3-.7 0-1.3-.6-1.3-1.3 0-.7.6-1.3 1.3-1.3zm17.4 6.1c-.1-.1-.2-.2-.4-.2l-.7-.1v-1.2c0-.3-.3-.6-.6-.6h-14c-.3 0-.6.3-.6.6s.3.6.6.6h13.5v18.3l-10-10c-.2-.2-.6-.2-.8 0l-3.6 3.6-3.7-3.8c-.1-.1-.2-.2-.4-.2s-.3.1-.4.2l-11.4 12.9v-21H115.2s.1 0 .1-.1l.1-.1.1-.1v-.1-.1-.1-.1-.1s0-.1-.1-.1c0 0-.1 0-.1-.1 0 0-.1 0-.1-.1h-.1-.1l-12.7-1.7c-.2 0-.3 0-.4.1-.1.1-.2.2-.2.4l-.1 1.2h-.7c-.3 0-.6.3-.6.6v10.6L99 106.9c0 .1 0 .3.1.4.1.1.2.2.4.2l.7.1V109s0 .1.1.1c0 0 0 .1.1.1 0 0 .1 0 .1.1h15.4l15 1.7h.1c.3 0 .5-.2.6-.5l.1-1.2h.7c.3 0 .6-.3.6-.6V98.1l1.2-10.5c-.2-.2-.2-.3-.3-.4zm-31.3-2.5l3.6.5h-3.7l.1-.5zm-.6 23.5l11.2-12.6 12.4 12.6H102zm28.4 1.6l-4.4-.5h4.5l-.1.5zm1.3-1.6h-4.6l-9-9.2 3.2-3.2 10.4 10.4v2zM79.6 93.5h-2c-.2 0-.5-.2-.6-.5l-1.2-2.8c-.1-.2-.1-.5.1-.7l1.4-1.4c.3-.3.4-.6.4-1s-.1-.7-.4-1l-1.6-1.6c-.5-.5-1.4-.5-1.9 0l-1.4 1.4c-.2.1-.4.2-.7.1l-2.8-1.2c-.2-.1-.4-.3-.4-.6v-2c0-.8-.6-1.4-1.4-1.4h-2.3c-.8 0-1.4.6-1.4 1.4v2c0 .2-.2.5-.5.6L60.1 86c-.2.1-.5.1-.7-.1L58 84.5c-.5-.5-1.4-.5-1.9 0l-1.6 1.6c-.3.3-.4.6-.4 1s.1.7.4 1l1.4 1.4c.2.2.2.5.1.7L54.8 93c-.1.2-.3.4-.6.4h-2c-.8 0-1.4.6-1.4 1.4v2.3c0 .8.6 1.4 1.4 1.4h2c.2 0 .5.2.6.5l1.2 2.8c.1.2.1.5-.1.7l-1.4 1.4c-.3.3-.4.6-.4 1s.1.7.4 1l1.6 1.6c.5.5 1.4.5 1.9 0l1.4-1.4c.1-.1.4-.2.7-.1l2.8 1.2c.2.1.4.3.4.6v2c0 .8.6 1.4 1.4 1.4H67c.8 0 1.4-.6 1.4-1.4v-2c0-.2.2-.5.5-.6l2.8-1.2c.2-.1.5-.1.7.1l1.4 1.4c.5.5 1.4.5 1.9 0l1.6-1.6c.3-.3.4-.6.4-1s-.1-.7-.4-1l-1.4-1.4c-.2-.2-.2-.5-.1-.7L77 99c.1-.2.3-.4.6-.4h2c.8 0 1.4-.6 1.4-1.4v-2.3c0-.8-.6-1.4-1.4-1.4zm.3 3.6c0 .2-.1.3-.3.3h-2c-.7 0-1.4.5-1.6 1.1l-1.1 2.7c-.3.6-.2 1.5.3 1.9l1.4 1.4c.1.1.1.2.1.2s0 .1-.1.2l-1.6 1.6c-.2.2-.3.2-.4 0l-1.4-1.4c-.3-.3-.7-.5-1.2-.5-.3 0-.5.1-.7.2l-2.7 1.1c-.7.2-1.2.9-1.2 1.6v2c0 .2-.1.3-.3.3h-2.3c-.2 0-.3-.1-.3-.3v-2c0-.7-.5-1.4-1.1-1.6l-2.7-1.1c-.2-.1-.5-.2-.8-.2-.5 0-.9.2-1.2.5l-1.4 1.4c-.1.1-.3.1-.4 0l-1.6-1.6c-.1-.1-.1-.2-.1-.2s0-.1.1-.2l1.4-1.4c.5-.5.6-1.3.3-1.9l-1.1-2.7c-.2-.7-.9-1.2-1.6-1.2h-2c-.2 0-.3-.1-.3-.3v-2.3c0-.2.1-.3.3-.3h2c.7 0 1.4-.5 1.6-1.1l1.1-2.7c.3-.6.2-1.5-.3-1.9l-1.4-1.4c-.1-.1-.1-.1-.1-.2s0-.2.1-.2l1.6-1.6c.1-.1.3-.1.4 0l1.4 1.4c.3.3.7.5 1.2.5.3 0 .5-.1.7-.2l2.7-1.1c.7-.2 1.2-.9 1.2-1.6v-2c0-.2.1-.3.3-.3h2.3c.2 0 .3.1.3.3v2c0 .7.5 1.4 1.1 1.6l2.7 1.1c.6.3 1.5.2 2-.3l1.4-1.4c.1-.1.3-.1.4 0l1.6 1.6c.1.1.1.1.1.2s0 .2-.1.2l-1.4 1.4c-.5.5-.6 1.3-.3 1.9l1.1 2.7c.2.7.9 1.2 1.6 1.2h2c.2 0 .3.1.3.3v2.3zM66 91.9c-2.3 0-4.1 1.9-4.1 4.1 0 2.3 1.9 4.1 4.1 4.1 2.3 0 4.1-1.9 4.1-4.1 0-2.3-1.8-4.1-4.1-4.1zm0 7.2c-1.7 0-3.1-1.4-3.1-3.1 0-1.7 1.4-3.1 3.1-3.1 1.7 0 3.1 1.4 3.1 3.1 0 1.7-1.4 3.1-3.1 3.1zM24.6 101.2H9.4c-.3 0-.6.3-.6.6s.2.6.6.6h15.2c.3 0 .6-.3.6-.6s-.3-.6-.6-.6zm-2.7-10.8h5.6c.3 0 .6-.3.6-.6 0-.2-.1-.4-.2-.5l-7.8-8.2c-.2-.2-.4-.2-.6-.1-.2.1-.3.3-.3.5v5.9c-.2 1.7 1.1 3 2.7 3zm-1.8-7.5l6 6.3h-4.3c-1 0-1.8-.8-1.8-1.8v-4.5h.1zm4.5 22.2H9.4c-.3 0-.6.3-.6.6s.2.6.6.6h15.2c.3 0 .6-.3.6-.6 0-.4-.3-.6-.6-.6zM9.4 86.9h7c.3 0 .5-.3.5-.6s-.2-.6-.5-.6h-7c-.3 0-.6.3-.6.6 0 .4.3.6.6.6zm18 3.8c-.3 0-.6.3-.6.6v16.6c0 1.1-.9 2-2 2H8.9c-1.1 0-2-.9-2-2V84.1c0-1.1.9-2 2-2H18c.3 0 .6-.3.6-.6s-.2-.6-.6-.6H8.9c-1.7 0-3 1.3-3.1 3.1v23.8c0 1.7 1.4 3.1 3.1 3.1h15.9c1.7 0 3.1-1.4 3.1-3.1V91.2c.1-.3-.2-.5-.5-.5zm-18 .1h7c.3 0 .5-.3.5-.6s-.2-.6-.5-.6h-7c-.3 0-.6.3-.6.6s.3.6.6.6zm15.2 2.7H9.4c-.3 0-.6.3-.6.6s.2.6.6.6h15.2c.3 0 .6-.3.6-.6s-.3-.6-.6-.6zm0 3.9H9.4c-.3 0-.6.3-.6.6s.2.6.6.6h15.2c.3 0 .6-.3.6-.6 0-.4-.3-.6-.6-.6zM-33.5 96.2c4 0 7.2-3.2 7.2-7.2s-3.2-7.2-7.2-7.2-7.2 3.2-7.2 7.2 3.2 7.2 7.2 7.2zm0-13.3c3.4 0 6.2 2.8 6.2 6.2 0 3.4-2.8 6.2-6.2 6.2-3.4 0-6.2-2.8-6.2-6.2 0-3.5 2.8-6.2 6.2-6.2zm10.9 10.9c-1 0-1.9-.3-2.7-1-.2-.2-.5-.1-.7.1-.2.2-.1.5.1.7.9.8 2.1 1.2 3.3 1.2 2.9 0 5.3-2.4 5.3-5.3s-2.4-5.3-5.3-5.3c-1.2 0-2.4.4-3.3 1.2-.2.2-.3.5-.1.7.2.2.5.3.7.1.7-.6 1.7-1 2.7-1 2.3 0 4.2 1.9 4.2 4.2 0 2.5-1.9 4.4-4.2 4.4zM-26 100c-1.9-3.1-5.8-2.7-5.9-2.7h-3.2c-.1 0-3.3-.1-5.2 2.6-1 1.5-2.5 7.1-3.1 9.5-.1.3.1.6.4.6.3.1.6-.1.6-.4.6-2.5 2-7.9 2.9-9.1 1.5-2.2 4.3-2.1 4.3-2.1h3.3s3.5-.3 5 2.2v.1c.9 1.2 2.5 6.5 3.1 9 .1.2.3.4.5.4h.1c.3-.1.5-.3.4-.6-.5-2.1-2.1-8-3.2-9.5zm-18.4-5.2c1.2 0 2.4-.4 3.3-1.2.2-.2.3-.5.1-.7-.2-.2-.5-.3-.7-.1-.8.6-1.7 1-2.7 1-2.3 0-4.2-1.9-4.2-4.2 0-2.3 1.9-4.2 4.2-4.2 1 0 1.9.3 2.7 1 .2.2.5.1.7-.1.2-.2.1-.5-.1-.7-.9-.8-2.1-1.2-3.3-1.2-2.9 0-5.3 2.4-5.3 5.3.1 2.8 2.4 5.1 5.3 5.1zm28.4 7.3c-.6-2.5-1.1-4.2-1.7-4.9-1.4-2-3.7-1.9-3.8-1.9h-2.2c-.1 0-2.8-.3-4.2 1.7-.2.2-.1.6.1.7.2.2.6.1.7-.1 1.1-1.5 3.2-1.3 3.3-1.3h2.3s1.9 0 2.9 1.5c.3.5.8 1.6 1.5 4.6.1.2.3.4.5.4h.1c.4-.1.5-.4.5-.7zm-23.8-4.3c.1.2.5.3.7.2.2-.1.3-.5.2-.7-1.4-2.3-4.3-2-4.3-2h-2.3c-.1 0-2.4-.1-3.8 1.9-.5.8-1.1 2.5-1.7 4.9-.1.3.1.6.4.6h.1c.2 0 .5-.2.5-.4.5-2.3 1-3.9 1.5-4.6 1-1.5 2.8-1.5 2.9-1.5h2.3c.1.1 2.4-.1 3.5 1.6z"/></svg>